<svg width="292" height="169" viewBox="0 0 292 169" fill="none" xmlns="http://www.w3.org/2000/svg">
<rect width="292" height="169" fill="black"/>
<path d="M75.68 100V96.88L82.208 89.92H75.92V86.8H86.456V89.92L79.928 96.88H86.72V100H75.68ZM89.9746 100V82.48H93.5746V86.8L93.4546 89.32H94.5106L93.4546 90.16C93.4546 89.04 93.7746 88.16 94.4146 87.52C95.0546 86.88 95.9186 86.56 97.0066 86.56C98.2866 86.56 99.3106 87.008 100.079 87.904C100.863 88.8 101.255 89.992 101.255 91.48V100H97.6546V91.84C97.6546 91.152 97.4706 90.624 97.1026 90.256C96.7506 89.872 96.2466 89.68 95.5906 89.68C94.9506 89.68 94.4546 89.872 94.1026 90.256C93.7506 90.624 93.5746 91.152 93.5746 91.84V100H89.9746ZM110.005 100.24C108.837 100.24 107.813 100.024 106.933 99.592C106.069 99.144 105.397 98.528 104.917 97.744C104.453 96.944 104.221 96.016 104.221 94.96V91.84C104.221 90.784 104.453 89.864 104.917 89.08C105.397 88.28 106.069 87.664 106.933 87.232C107.813 86.784 108.837 86.56 110.005 86.56C111.173 86.56 112.181 86.784 113.029 87.232C113.893 87.664 114.557 88.28 115.021 89.08C115.501 89.864 115.741 90.784 115.741 91.84V94.24H107.653V94.96C107.653 95.792 107.853 96.424 108.253 96.856C108.653 97.272 109.253 97.48 110.053 97.48C110.613 97.48 111.061 97.384 111.397 97.192C111.749 97 111.981 96.736 112.093 96.4H115.621C115.333 97.552 114.677 98.48 113.653 99.184C112.645 99.888 111.429 100.24 110.005 100.24ZM112.309 92.392V91.792C112.309 90.976 112.117 90.352 111.733 89.92C111.365 89.488 110.789 89.272 110.005 89.272C109.221 89.272 108.629 89.496 108.229 89.944C107.845 90.392 107.653 91.024 107.653 91.84V92.2L112.549 92.152L112.309 92.392ZM126.532 100C125.604 100 124.788 99.808 124.084 99.424C123.38 99.024 122.828 98.472 122.428 97.768C122.044 97.064 121.852 96.248 121.852 95.32V85.72H117.772V82.48H125.452V95.32C125.452 95.752 125.58 96.104 125.836 96.376C126.108 96.632 126.46 96.76 126.892 96.76H130.732V100H126.532ZM140.923 100C139.995 100 139.179 99.808 138.475 99.424C137.771 99.024 137.219 98.472 136.819 97.768C136.435 97.064 136.243 96.248 136.243 95.32V85.72H132.163V82.48H139.843V95.32C139.843 95.752 139.971 96.104 140.227 96.376C140.499 96.632 140.851 96.76 141.283 96.76H145.122V100H140.923Z" fill="#00FF11" fill-opacity="0.99"/>
<path d="M166.992 100.24C165.904 100.24 164.952 100.072 164.136 99.736C163.32 99.384 162.68 98.904 162.216 98.296C161.768 97.688 161.544 96.976 161.544 96.16H165.144C165.144 96.544 165.312 96.856 165.648 97.096C166 97.32 166.448 97.432 166.992 97.432H168.048C168.704 97.432 169.2 97.312 169.536 97.072C169.888 96.832 170.064 96.496 170.064 96.064C170.064 95.664 169.912 95.36 169.608 95.152C169.304 94.928 168.832 94.776 168.192 94.696L166.656 94.504C165.008 94.296 163.808 93.896 163.056 93.304C162.304 92.712 161.928 91.808 161.928 90.592C161.928 89.312 162.368 88.32 163.248 87.616C164.128 86.912 165.416 86.56 167.112 86.56H168.024C169.64 86.56 170.928 86.912 171.888 87.616C172.848 88.32 173.328 89.264 173.328 90.448H169.728C169.728 90.128 169.568 89.872 169.248 89.68C168.944 89.472 168.536 89.368 168.024 89.368H167.112C166.52 89.368 166.088 89.472 165.816 89.68C165.544 89.872 165.408 90.168 165.408 90.568C165.408 90.936 165.528 91.216 165.768 91.408C166.024 91.6 166.424 91.736 166.968 91.816L168.624 92.032C170.288 92.24 171.52 92.656 172.32 93.28C173.136 93.904 173.544 94.832 173.544 96.064C173.544 97.408 173.08 98.44 172.152 99.16C171.224 99.88 169.856 100.24 168.048 100.24H166.992ZM181.958 100.24C180.79 100.24 179.766 100.024 178.886 99.592C178.022 99.144 177.35 98.528 176.87 97.744C176.406 96.944 176.174 96.016 176.174 94.96V91.84C176.174 90.784 176.406 89.864 176.87 89.08C177.35 88.28 178.022 87.664 178.886 87.232C179.766 86.784 180.79 86.56 181.958 86.56C183.126 86.56 184.134 86.784 184.982 87.232C185.846 87.664 186.51 88.28 186.974 89.08C187.454 89.864 187.694 90.784 187.694 91.84V94.24H179.606V94.96C179.606 95.792 179.806 96.424 180.206 96.856C180.606 97.272 181.206 97.48 182.006 97.48C182.566 97.48 183.014 97.384 183.35 97.192C183.702 97 183.934 96.736 184.046 96.4H187.574C187.286 97.552 186.63 98.48 185.606 99.184C184.598 99.888 183.382 100.24 181.958 100.24ZM184.262 92.392V91.792C184.262 90.976 184.07 90.352 183.686 89.92C183.318 89.488 182.742 89.272 181.958 89.272C181.174 89.272 180.582 89.496 180.182 89.944C179.798 90.392 179.606 91.024 179.606 91.84V92.2L184.502 92.152L184.262 92.392ZM191.093 100V86.8H194.453V89.32H195.365L194.333 90.856C194.333 89.432 194.661 88.36 195.317 87.64C195.973 86.92 196.933 86.56 198.197 86.56C199.653 86.56 200.781 87 201.581 87.88C202.397 88.76 202.805 90 202.805 91.6V92.68H198.965V91.84C198.965 91.12 198.765 90.56 198.365 90.16C197.981 89.76 197.461 89.56 196.805 89.56C196.117 89.56 195.589 89.76 195.221 90.16C194.869 90.56 194.693 91.12 194.693 91.84V100H191.093ZM208.484 100L204.164 86.8H207.884L210.092 94.216C210.22 94.664 210.348 95.152 210.476 95.68C210.604 96.208 210.7 96.632 210.764 96.952C210.844 96.632 210.94 96.208 211.052 95.68C211.18 95.152 211.3 94.672 211.412 94.24L213.596 86.8H217.268L212.996 100H208.484ZM225.13 100.24C223.962 100.24 222.938 100.024 222.058 99.592C221.194 99.144 220.522 98.528 220.042 97.744C219.578 96.944 219.346 96.016 219.346 94.96V91.84C219.346 90.784 219.578 89.864 220.042 89.08C220.522 88.28 221.194 87.664 222.058 87.232C222.938 86.784 223.962 86.56 225.13 86.56C226.298 86.56 227.306 86.784 228.154 87.232C229.018 87.664 229.682 88.28 230.146 89.08C230.626 89.864 230.866 90.784 230.866 91.84V94.24H222.778V94.96C222.778 95.792 222.978 96.424 223.378 96.856C223.778 97.272 224.378 97.48 225.178 97.48C225.738 97.48 226.186 97.384 226.522 97.192C226.874 97 227.106 96.736 227.218 96.4H230.746C230.458 97.552 229.802 98.48 228.778 99.184C227.77 99.888 226.554 100.24 225.13 100.24ZM227.434 92.392V91.792C227.434 90.976 227.242 90.352 226.858 89.92C226.49 89.488 225.914 89.272 225.13 89.272C224.346 89.272 223.754 89.496 223.354 89.944C222.97 90.392 222.778 91.024 222.778 91.84V92.2L227.674 92.152L227.434 92.392ZM234.265 100V86.8H237.625V89.32H238.537L237.505 90.856C237.505 89.432 237.833 88.36 238.489 87.64C239.145 86.92 240.105 86.56 241.369 86.56C242.825 86.56 243.953 87 244.753 87.88C245.569 88.76 245.977 90 245.977 91.6V92.68H242.137V91.84C242.137 91.12 241.937 90.56 241.537 90.16C241.153 89.76 240.633 89.56 239.977 89.56C239.289 89.56 238.761 89.76 238.393 90.16C238.041 90.56 237.865 91.12 237.865 91.84V100H234.265Z" fill="white"/>
<line y1="-0.5" x2="69.7846" y2="-0.5" transform="matrix(-0.000337032 1 -1 -0.00031661 154.022 51.7231)" stroke="#00FF11" stroke-opacity="0.99"/>
<line y1="-0.5" x2="101.005" y2="-0.5" transform="matrix(-0.999954 -0.0095959 0.0102148 -0.999948 154 51.7231)" stroke="white"/>
<line x1="53.5" y1="52" x2="53.5" y2="122" stroke="white"/>
<line x1="53" y1="121.5" x2="154" y2="121.5" stroke="#00FF11" stroke-opacity="0.99"/>
<g clip-path="url(#clip0_0_1)">
<path d="M268 121.667H270C272.122 121.667 274.157 122.492 275.657 123.961C277.157 125.43 278 127.422 278 129.5C278 131.578 277.157 133.57 275.657 135.039C274.157 136.508 272.122 137.333 270 137.333H268M268 121.667H236V139.292C236 141.369 236.843 143.362 238.343 144.831C239.843 146.3 241.878 147.125 244 147.125H260C262.122 147.125 264.157 146.3 265.657 144.831C267.157 143.362 268 141.369 268 139.292V121.667ZM244 107.958V113.833M252 107.958V113.833M260 107.958V113.833" stroke="#F3F3F3" stroke-width="4" stroke-linecap="round" stroke-linejoin="round"/>
</g>
<g clip-path="url(#clip1_0_1)">
<path d="M30.6188 11.2053C30.839 11.3755 31.0094 11.6403 31.1022 11.9563C31.1949 12.2724 31.2046 12.621 31.1295 12.9453L27.0773 30.5013H34.554C34.7737 30.5012 34.9887 30.5869 35.1723 30.7478C35.3559 30.9087 35.5002 31.1377 35.5873 31.4067C35.6744 31.6757 35.7005 31.9727 35.6624 32.2613C35.6244 32.5498 35.5238 32.8172 35.373 33.0303L17.373 58.5303C17.1989 58.7773 16.9671 58.9383 16.7155 58.9871C16.4639 59.0359 16.2074 58.9697 15.9876 58.7992C15.7679 58.6287 15.598 58.364 15.5055 58.0482C15.4131 57.7324 15.4035 57.3842 15.4785 57.0603L19.5308 39.5013H12.054C11.8343 39.5014 11.6194 39.4158 11.4357 39.2549C11.2521 39.094 11.1078 38.8649 11.0207 38.5959C10.9336 38.327 10.9075 38.0299 10.9456 37.7414C10.9837 37.4528 11.0843 37.1855 11.235 36.9723L29.235 11.4723C29.409 11.2257 29.6404 11.0648 29.8916 11.0158C30.1428 10.9668 30.3991 11.0325 30.6188 11.2023V11.2053Z" fill="#00FF11" fill-opacity="0.99"/>
</g>
<path d="M118.96 16C118.344 16 117.86 15.824 117.508 15.472C117.156 15.12 116.98 14.636 116.98 14.02V11.435H115.385V9.95H116.98V8.245H118.63V9.95H120.885V11.435H118.63V14.02C118.63 14.35 118.795 14.515 119.125 14.515H120.775V16H118.96ZM124.907 16.11C124.371 16.11 123.902 16.011 123.499 15.813C123.103 15.6077 122.795 15.3253 122.575 14.966C122.362 14.5993 122.256 14.174 122.256 13.69V12.26C122.256 11.776 122.362 11.3543 122.575 10.995C122.795 10.6283 123.103 10.346 123.499 10.148C123.902 9.94267 124.371 9.84 124.907 9.84C125.442 9.84 125.904 9.94267 126.293 10.148C126.689 10.346 126.993 10.6283 127.206 10.995C127.426 11.3543 127.536 11.776 127.536 12.26V13.36H123.829V13.69C123.829 14.0713 123.92 14.361 124.104 14.559C124.287 14.7497 124.562 14.845 124.929 14.845C125.185 14.845 125.391 14.801 125.545 14.713C125.706 14.625 125.812 14.504 125.864 14.35H127.481C127.349 14.878 127.048 15.3033 126.579 15.626C126.117 15.9487 125.559 16.11 124.907 16.11ZM125.963 12.513V12.238C125.963 11.864 125.875 11.578 125.699 11.38C125.53 11.182 125.266 11.083 124.907 11.083C124.547 11.083 124.276 11.1857 124.093 11.391C123.917 11.5963 123.829 11.886 123.829 12.26V12.425L126.073 12.403L125.963 12.513ZM129.093 16V9.95H130.633V11.105H131.051L130.578 11.809C130.578 11.1563 130.729 10.665 131.029 10.335C131.33 10.005 131.77 9.84 132.349 9.84C133.017 9.84 133.534 10.0417 133.9 10.445C134.274 10.8483 134.461 11.4167 134.461 12.15V12.645H132.701V12.26C132.701 11.93 132.61 11.6733 132.426 11.49C132.25 11.3067 132.012 11.215 131.711 11.215C131.396 11.215 131.154 11.3067 130.985 11.49C130.824 11.6733 130.743 11.93 130.743 12.26V16H129.093ZM135.249 16V9.95H136.547V10.83H136.811L136.602 10.984C136.602 10.6393 136.701 10.3643 136.899 10.159C137.097 9.94633 137.343 9.84 137.636 9.84C137.951 9.84 138.197 9.97567 138.373 10.247C138.549 10.5183 138.637 10.8777 138.637 11.325L138.439 10.83H138.747L138.648 10.984C138.648 10.6393 138.743 10.3643 138.934 10.159C139.125 9.94633 139.381 9.84 139.704 9.84C140.071 9.84 140.368 9.97933 140.595 10.258C140.822 10.5293 140.936 10.9033 140.936 11.38V16H139.517V11.49C139.517 11.3213 139.48 11.193 139.407 11.105C139.334 11.0097 139.227 10.962 139.088 10.962C138.949 10.962 138.842 11.0097 138.769 11.105C138.696 11.193 138.659 11.3213 138.659 11.49V16H137.526V11.49C137.526 11.3213 137.489 11.193 137.416 11.105C137.343 11.0097 137.236 10.962 137.097 10.962C136.958 10.962 136.851 11.0097 136.778 11.105C136.705 11.193 136.668 11.3213 136.668 11.49V16H135.249ZM144.683 16.11C143.869 16.11 143.231 15.89 142.769 15.45C142.314 15.01 142.087 14.4087 142.087 13.646V9.95H143.737V13.635C143.737 13.9723 143.817 14.2327 143.979 14.416C144.14 14.592 144.375 14.68 144.683 14.68C144.983 14.68 145.214 14.592 145.376 14.416C145.544 14.2327 145.629 13.9723 145.629 13.635V9.95H147.279V13.646C147.279 14.416 147.048 15.021 146.586 15.461C146.124 15.8937 145.489 16.11 144.683 16.11ZM148.265 16L150.355 12.865L148.408 9.95H150.245L150.993 11.16C151.051 11.2553 151.106 11.3617 151.158 11.479C151.209 11.5963 151.249 11.6917 151.279 11.765C151.308 11.6917 151.348 11.5963 151.4 11.479C151.458 11.3617 151.513 11.2553 151.565 11.16L152.313 9.95H154.15L152.214 12.865L154.293 16H152.456L151.576 14.57C151.517 14.4673 151.458 14.361 151.4 14.251C151.348 14.1337 151.308 14.0383 151.279 13.965C151.249 14.0383 151.209 14.1337 151.158 14.251C151.106 14.361 151.051 14.4673 150.993 14.57L150.102 16H148.265ZM161.94 16V14.504H164.03V11.435H162.215V9.95H165.57V14.504H167.33V16H161.94ZM164.69 8.993C164.389 8.993 164.147 8.916 163.964 8.762C163.788 8.608 163.7 8.399 163.7 8.135C163.7 7.871 163.788 7.662 163.964 7.508C164.147 7.354 164.389 7.277 164.69 7.277C164.991 7.277 165.229 7.354 165.405 7.508C165.588 7.662 165.68 7.871 165.68 8.135C165.68 8.399 165.588 8.608 165.405 8.762C165.229 8.916 164.991 8.993 164.69 8.993ZM168.492 16V9.95H170.087V11.105H170.571L170.087 11.49C170.087 10.9767 170.233 10.5733 170.527 10.28C170.82 9.98667 171.216 9.84 171.715 9.84C172.301 9.84 172.771 10.0453 173.123 10.456C173.482 10.8667 173.662 11.413 173.662 12.095V16H172.012V12.26C172.012 11.9447 171.927 11.7027 171.759 11.534C171.597 11.358 171.366 11.27 171.066 11.27C170.772 11.27 170.545 11.358 170.384 11.534C170.222 11.7027 170.142 11.9447 170.142 12.26V16H168.492ZM177.034 16.11C176.426 16.11 175.938 15.8973 175.571 15.472C175.205 15.0467 175.021 14.471 175.021 13.745V12.205C175.021 11.4863 175.205 10.9143 175.571 10.489C175.938 10.0563 176.426 9.84 177.034 9.84C177.533 9.84 177.925 9.98667 178.211 10.28C178.497 10.566 178.64 10.9693 178.64 11.49L178.255 11.105H178.64L178.585 9.62V7.97H180.235V16H178.64V14.845H178.255L178.64 14.46C178.64 14.9807 178.497 15.3877 178.211 15.681C177.925 15.967 177.533 16.11 177.034 16.11ZM177.628 14.68C177.929 14.68 178.164 14.5957 178.332 14.427C178.501 14.251 178.585 14.0053 178.585 13.69V12.26C178.585 11.9447 178.501 11.7027 178.332 11.534C178.164 11.358 177.929 11.27 177.628 11.27C177.32 11.27 177.082 11.358 176.913 11.534C176.752 11.7027 176.671 11.9447 176.671 12.26V13.69C176.671 14.0053 176.752 14.251 176.913 14.427C177.082 14.5957 177.32 14.68 177.628 14.68ZM184.257 16.11C183.722 16.11 183.256 16.011 182.86 15.813C182.464 15.6077 182.156 15.3253 181.936 14.966C181.723 14.5993 181.617 14.174 181.617 13.69V12.26C181.617 11.776 181.723 11.3543 181.936 10.995C182.156 10.6283 182.464 10.346 182.86 10.148C183.256 9.94267 183.722 9.84 184.257 9.84C184.8 9.84 185.265 9.94267 185.654 10.148C186.05 10.346 186.354 10.6283 186.567 10.995C186.787 11.3543 186.897 11.776 186.897 12.26V13.69C186.897 14.174 186.787 14.5993 186.567 14.966C186.354 15.3253 186.05 15.6077 185.654 15.813C185.265 16.011 184.8 16.11 184.257 16.11ZM184.257 14.68C184.58 14.68 184.825 14.5957 184.994 14.427C185.163 14.251 185.247 14.0053 185.247 13.69V12.26C185.247 11.9373 185.163 11.6917 184.994 11.523C184.825 11.3543 184.58 11.27 184.257 11.27C183.942 11.27 183.696 11.3543 183.52 11.523C183.351 11.6917 183.267 11.9373 183.267 12.26V13.69C183.267 14.0053 183.351 14.251 183.52 14.427C183.696 14.5957 183.942 14.68 184.257 14.68ZM188.279 16V9.95H189.874V11.105H190.358L189.874 11.49C189.874 10.9767 190.02 10.5733 190.314 10.28C190.607 9.98667 191.003 9.84 191.502 9.84C192.088 9.84 192.558 10.0453 192.91 10.456C193.269 10.8667 193.449 11.413 193.449 12.095V16H191.799V12.26C191.799 11.9447 191.714 11.7027 191.546 11.534C191.384 11.358 191.153 11.27 190.853 11.27C190.559 11.27 190.332 11.358 190.171 11.534C190.009 11.7027 189.929 11.9447 189.929 12.26V16H188.279ZM197.459 16.11C196.924 16.11 196.455 16.011 196.051 15.813C195.655 15.6077 195.347 15.3253 195.127 14.966C194.915 14.5993 194.808 14.174 194.808 13.69V12.26C194.808 11.776 194.915 11.3543 195.127 10.995C195.347 10.6283 195.655 10.346 196.051 10.148C196.455 9.94267 196.924 9.84 197.459 9.84C197.995 9.84 198.457 9.94267 198.845 10.148C199.241 10.346 199.546 10.6283 199.758 10.995C199.978 11.3543 200.088 11.776 200.088 12.26V13.36H196.381V13.69C196.381 14.0713 196.473 14.361 196.656 14.559C196.84 14.7497 197.115 14.845 197.481 14.845C197.738 14.845 197.943 14.801 198.097 14.713C198.259 14.625 198.365 14.504 198.416 14.35H200.033C199.901 14.878 199.601 15.3033 199.131 15.626C198.669 15.9487 198.112 16.11 197.459 16.11ZM198.515 12.513V12.238C198.515 11.864 198.427 11.578 198.251 11.38C198.083 11.182 197.819 11.083 197.459 11.083C197.1 11.083 196.829 11.1857 196.645 11.391C196.469 11.5963 196.381 11.886 196.381 12.26V12.425L198.625 12.403L198.515 12.513ZM203.791 16.11C203.292 16.11 202.856 16.033 202.482 15.879C202.108 15.7177 201.815 15.4977 201.602 15.219C201.397 14.9403 201.294 14.614 201.294 14.24H202.944C202.944 14.416 203.021 14.559 203.175 14.669C203.336 14.7717 203.542 14.823 203.791 14.823H204.275C204.576 14.823 204.803 14.768 204.957 14.658C205.118 14.548 205.199 14.394 205.199 14.196C205.199 14.0127 205.129 13.8733 204.99 13.778C204.851 13.6753 204.634 13.6057 204.341 13.569L203.637 13.481C202.882 13.3857 202.332 13.2023 201.987 12.931C201.642 12.6597 201.47 12.2453 201.47 11.688C201.47 11.1013 201.672 10.6467 202.075 10.324C202.478 10.0013 203.069 9.84 203.846 9.84H204.264C205.005 9.84 205.595 10.0013 206.035 10.324C206.475 10.6467 206.695 11.0793 206.695 11.622H205.045C205.045 11.4753 204.972 11.358 204.825 11.27C204.686 11.1747 204.499 11.127 204.264 11.127H203.846C203.575 11.127 203.377 11.1747 203.252 11.27C203.127 11.358 203.065 11.4937 203.065 11.677C203.065 11.8457 203.12 11.974 203.23 12.062C203.347 12.15 203.531 12.2123 203.78 12.249L204.539 12.348C205.302 12.4433 205.866 12.634 206.233 12.92C206.607 13.206 206.794 13.6313 206.794 14.196C206.794 14.812 206.581 15.285 206.156 15.615C205.731 15.945 205.104 16.11 204.275 16.11H203.791ZM208.11 16V14.504H210.2V11.435H208.385V9.95H211.74V14.504H213.5V16H208.11ZM210.86 8.993C210.559 8.993 210.317 8.916 210.134 8.762C209.958 8.608 209.87 8.399 209.87 8.135C209.87 7.871 209.958 7.662 210.134 7.508C210.317 7.354 210.559 7.277 210.86 7.277C211.161 7.277 211.399 7.354 211.575 7.508C211.758 7.662 211.85 7.871 211.85 8.135C211.85 8.399 211.758 8.608 211.575 8.762C211.399 8.916 211.161 8.993 210.86 8.993ZM216.455 16.11C215.846 16.11 215.362 15.945 215.003 15.615C214.651 15.285 214.475 14.8377 214.475 14.273C214.475 13.6643 214.684 13.1987 215.102 12.876C215.527 12.546 216.136 12.381 216.928 12.381H218.182V11.93C218.182 11.6953 218.097 11.5083 217.929 11.369C217.767 11.2297 217.547 11.16 217.269 11.16C217.012 11.16 216.799 11.2187 216.631 11.336C216.462 11.4533 216.359 11.6147 216.323 11.82H214.728C214.794 11.2113 215.058 10.731 215.52 10.379C215.989 10.0197 216.59 9.84 217.324 9.84C218.094 9.84 218.702 10.0307 219.15 10.412C219.604 10.786 219.832 11.292 219.832 11.93V16H218.237V15.01H217.973L218.248 14.625C218.248 15.0797 218.083 15.4427 217.753 15.714C217.43 15.978 216.997 16.11 216.455 16.11ZM217.071 14.9C217.393 14.9 217.657 14.8157 217.863 14.647C218.075 14.471 218.182 14.2437 218.182 13.965V13.316H216.961C216.711 13.316 216.51 13.3893 216.356 13.536C216.202 13.6753 216.125 13.8623 216.125 14.097C216.125 14.3463 216.209 14.5443 216.378 14.691C216.546 14.8303 216.777 14.9 217.071 14.9ZM230.46 16.11C229.925 16.11 229.455 16.011 229.052 15.813C228.649 15.6077 228.337 15.3253 228.117 14.966C227.897 14.5993 227.787 14.174 227.787 13.69V12.26C227.787 11.7687 227.897 11.3433 228.117 10.984C228.337 10.6247 228.649 10.346 229.052 10.148C229.455 9.94267 229.925 9.84 230.46 9.84C231.259 9.84 231.897 10.0417 232.374 10.445C232.851 10.8483 233.104 11.3983 233.133 12.095H231.483C231.461 11.8383 231.358 11.6367 231.175 11.49C230.999 11.3433 230.761 11.27 230.46 11.27C230.13 11.27 229.877 11.3543 229.701 11.523C229.525 11.6917 229.437 11.9373 229.437 12.26V13.69C229.437 14.0053 229.525 14.251 229.701 14.427C229.877 14.5957 230.13 14.68 230.46 14.68C230.761 14.68 230.999 14.6103 231.175 14.471C231.358 14.3243 231.461 14.119 231.483 13.855H233.133C233.104 14.5517 232.851 15.1017 232.374 15.505C231.897 15.9083 231.259 16.11 230.46 16.11ZM237.023 16.11C236.487 16.11 236.022 16.011 235.626 15.813C235.23 15.6077 234.922 15.3253 234.702 14.966C234.489 14.5993 234.383 14.174 234.383 13.69V12.26C234.383 11.776 234.489 11.3543 234.702 10.995C234.922 10.6283 235.23 10.346 235.626 10.148C236.022 9.94267 236.487 9.84 237.023 9.84C237.565 9.84 238.031 9.94267 238.42 10.148C238.816 10.346 239.12 10.6283 239.333 10.995C239.553 11.3543 239.663 11.776 239.663 12.26V13.69C239.663 14.174 239.553 14.5993 239.333 14.966C239.12 15.3253 238.816 15.6077 238.42 15.813C238.031 16.011 237.565 16.11 237.023 16.11ZM237.023 14.68C237.345 14.68 237.591 14.5957 237.76 14.427C237.928 14.251 238.013 14.0053 238.013 13.69V12.26C238.013 11.9373 237.928 11.6917 237.76 11.523C237.591 11.3543 237.345 11.27 237.023 11.27C236.707 11.27 236.462 11.3543 236.286 11.523C236.117 11.6917 236.033 11.9373 236.033 12.26V13.69C236.033 14.0053 236.117 14.251 236.286 14.427C236.462 14.5957 236.707 14.68 237.023 14.68ZM240.78 16V9.95H242.078V10.83H242.342L242.133 10.984C242.133 10.6393 242.232 10.3643 242.43 10.159C242.628 9.94633 242.874 9.84 243.167 9.84C243.483 9.84 243.728 9.97567 243.904 10.247C244.08 10.5183 244.168 10.8777 244.168 11.325L243.97 10.83H244.278L244.179 10.984C244.179 10.6393 244.275 10.3643 244.465 10.159C244.656 9.94633 244.913 9.84 245.235 9.84C245.602 9.84 245.899 9.97933 246.126 10.258C246.354 10.5293 246.467 10.9033 246.467 11.38V16H245.048V11.49C245.048 11.3213 245.012 11.193 244.938 11.105C244.865 11.0097 244.759 10.962 244.619 10.962C244.48 10.962 244.374 11.0097 244.3 11.105C244.227 11.193 244.19 11.3213 244.19 11.49V16H243.057V11.49C243.057 11.3213 243.021 11.193 242.947 11.105C242.874 11.0097 242.768 10.962 242.628 10.962C242.489 10.962 242.383 11.0097 242.309 11.105C242.236 11.193 242.199 11.3213 242.199 11.49V16H240.78ZM247.376 16V9.95H248.674V10.83H248.938L248.729 10.984C248.729 10.6393 248.828 10.3643 249.026 10.159C249.224 9.94633 249.47 9.84 249.763 9.84C250.078 9.84 250.324 9.97567 250.5 10.247C250.676 10.5183 250.764 10.8777 250.764 11.325L250.566 10.83H250.874L250.775 10.984C250.775 10.6393 250.87 10.3643 251.061 10.159C251.252 9.94633 251.508 9.84 251.831 9.84C252.198 9.84 252.495 9.97933 252.722 10.258C252.949 10.5293 253.063 10.9033 253.063 11.38V16H251.644V11.49C251.644 11.3213 251.607 11.193 251.534 11.105C251.461 11.0097 251.354 10.962 251.215 10.962C251.076 10.962 250.969 11.0097 250.896 11.105C250.823 11.193 250.786 11.3213 250.786 11.49V16H249.653V11.49C249.653 11.3213 249.616 11.193 249.543 11.105C249.47 11.0097 249.363 10.962 249.224 10.962C249.085 10.962 248.978 11.0097 248.905 11.105C248.832 11.193 248.795 11.3213 248.795 11.49V16H247.376ZM256.81 16.11C255.996 16.11 255.358 15.89 254.896 15.45C254.441 15.01 254.214 14.4087 254.214 13.646V9.95H255.864V13.635C255.864 13.9723 255.944 14.2327 256.106 14.416C256.267 14.592 256.502 14.68 256.81 14.68C257.11 14.68 257.341 14.592 257.503 14.416C257.671 14.2327 257.756 13.9723 257.756 13.635V9.95H259.406V13.646C259.406 14.416 259.175 15.021 258.713 15.461C258.251 15.8937 257.616 16.11 256.81 16.11ZM260.831 16V9.95H262.426V11.105H262.91L262.426 11.49C262.426 10.9767 262.573 10.5733 262.866 10.28C263.16 9.98667 263.556 9.84 264.054 9.84C264.641 9.84 265.11 10.0453 265.462 10.456C265.822 10.8667 266.001 11.413 266.001 12.095V16H264.351V12.26C264.351 11.9447 264.267 11.7027 264.098 11.534C263.937 11.358 263.706 11.27 263.405 11.27C263.112 11.27 262.885 11.358 262.723 11.534C262.562 11.7027 262.481 11.9447 262.481 12.26V16H260.831ZM267.471 16V14.504H269.561V11.435H267.746V9.95H271.101V14.504H272.861V16H267.471ZM270.221 8.993C269.921 8.993 269.679 8.916 269.495 8.762C269.319 8.608 269.231 8.399 269.231 8.135C269.231 7.871 269.319 7.662 269.495 7.508C269.679 7.354 269.921 7.277 270.221 7.277C270.522 7.277 270.76 7.354 270.936 7.508C271.12 7.662 271.211 7.871 271.211 8.135C271.211 8.399 271.12 8.608 270.936 8.762C270.76 8.916 270.522 8.993 270.221 8.993ZM277.257 16C276.641 16 276.157 15.824 275.805 15.472C275.453 15.12 275.277 14.636 275.277 14.02V11.435H273.682V9.95H275.277V8.245H276.927V9.95H279.182V11.435H276.927V14.02C276.927 14.35 277.092 14.515 277.422 14.515H279.072V16H277.257ZM281.62 17.98L282.445 15.703L280.179 9.95H281.972L282.885 12.59C282.951 12.788 283.017 13.03 283.083 13.316C283.156 13.5947 283.211 13.822 283.248 13.998C283.284 13.822 283.336 13.5947 283.402 13.316C283.475 13.03 283.545 12.788 283.611 12.59L284.491 9.95H286.207L283.347 17.98H281.62Z" fill="white"/>
<defs>
<clipPath id="clip0_0_1">
<rect width="48" height="47" fill="white" transform="translate(232 106)"/>
</clipPath>
<clipPath id="clip1_0_1">
<rect width="36" height="48" fill="white" transform="translate(0 11)"/>
</clipPath>
</defs>
</svg>